<svg xmlns="http://www.w3.org/2000/svg" viewBox="0 0 410 404">
  <defs>
    <linearGradient id="viteGradient" x1="0" y1="0" x2="1" y2="1">
      <stop offset="0%" stop-color="#41d1ff" />
      <stop offset="45%" stop-color="#bd34fe" />
      <stop offset="100%" stop-color="#f7a1ff" />
    </linearGradient>
    <filter id="glow" x="-20%" y="-20%" width="140%" height="140%" color-interpolation-filters="sRGB">
      <feGaussianBlur stdDeviation="12" result="coloredBlur" />
      <feMerge>
        <feMergeNode in="coloredBlur" />
        <feMergeNode in="SourceGraphic" />
      </feMerge>
    </filter>
  </defs>
  <path fill="#FFEA83" d="M255.153 37.938L50.745 212.923c-4.532 3.912-1.995 11.527 4.052 11.777l121.797 5.14c2.325.098 4.371 1.57 5.171 3.774l37.689 104.139c2.159 5.969 10.579 6.273 13.185.46l129.06-280.535c2.806-6.108-4.965-11.81-10.527-7.64L278.24 73.662a6.889 6.889 0 01-8.448.051l-9.827-7.03a6.888 6.888 0 00-8.462.051z"/>
  <path filter="url(#glow)" fill="url(#viteGradient)" d="M392.378 25.017L215.08 361.265c-2.99 5.654-11.36 5.653-14.348-.002L7.622 25.017C4.048 18.238 9.485 10 17.08 10h375.84c7.594 0 13.032 8.238 9.457 15.017z"/>
</svg>
